<svg data-v-423bf9ae="" xmlns="http://www.w3.org/2000/svg" viewBox="0 0 436 101" class="iconLeft"><!----><!----><!----><g data-v-423bf9ae="" id="13012e89-4d7d-448e-945d-6ff5aec99cd9" fill="#2F190E" transform="matrix(4.559270569581267,0,0,4.559270569581267,77.00057634833536,1.9600609152774808)"><path d="M1.08 14.35L6.26 14.35C7.70 14.35 8.78 13.10 8.78 11.56C8.78 9.88 7.50 9.27 6.58 9.27L6.58 9.18C7.57 9.14 8.40 8.58 8.40 7.08C8.40 5.57 7.43 4.58 5.82 4.58L1.08 4.58ZM3.21 10.32L5.66 10.32C6.22 10.32 6.57 10.64 6.57 11.20L6.57 11.68C6.57 12.24 6.22 12.56 5.66 12.56L3.21 12.56ZM3.21 6.37L5.32 6.37C5.88 6.37 6.22 6.71 6.22 7.27L6.22 7.69C6.22 8.25 5.88 8.58 5.32 8.58L3.21 8.58ZM13.29 14.52C15.44 14.52 16.73 13.03 16.73 10.67C16.73 8.30 15.44 6.83 13.29 6.83C11.13 6.83 9.84 8.30 9.84 10.67C9.84 13.03 11.13 14.52 13.29 14.52ZM13.29 12.88C12.47 12.88 12.00 12.35 12.00 11.42L12.00 9.93C12.00 9.00 12.47 8.47 13.29 8.47C14.10 8.47 14.57 9.00 14.57 9.93L14.57 11.42C14.57 12.35 14.10 12.88 13.29 12.88ZM21.18 14.52C23.34 14.52 24.63 13.03 24.63 10.67C24.63 8.30 23.34 6.83 21.18 6.83C19.03 6.83 17.74 8.30 17.74 10.67C17.74 13.03 19.03 14.52 21.18 14.52ZM21.18 12.88C20.37 12.88 19.89 12.35 19.89 11.42L19.89 9.93C19.89 9.00 20.37 8.47 21.18 8.47C21.99 8.47 22.47 9.00 22.47 9.93L22.47 11.42C22.47 12.35 21.99 12.88 21.18 12.88ZM26.10 14.35L28.17 14.35L28.17 12.28L29.09 11.24L30.74 14.35L33.21 14.35L30.48 9.81L32.93 7.00L30.63 7.00L29.16 8.75L28.25 10.11L28.17 10.11L28.17 3.99L26.10 3.99ZM41.59 14.35L43.60 14.35L43.60 4.58L41.33 4.58L38.96 9.16L38.93 9.16L36.54 4.58L34.29 4.58L34.29 14.35L36.29 14.35L36.29 7.84L36.33 7.84L37.07 9.38L38.93 12.82L40.84 9.37L41.55 7.94L41.59 7.94ZM48.71 14.52C50.05 14.52 51.13 14.06 51.79 13.30L50.75 12.01C50.29 12.49 49.81 12.89 48.94 12.89C47.84 12.89 47.32 12.28 47.32 11.31L47.32 11.20L52.04 11.20L52.04 10.58C52.04 8.60 51.06 6.83 48.62 6.83C46.41 6.83 45.18 8.34 45.18 10.67C45.18 13.02 46.45 14.52 48.71 14.52ZM48.66 8.36C49.49 8.36 49.90 8.96 49.90 9.86L49.90 9.98L47.32 9.98L47.32 9.87C47.32 8.96 47.84 8.36 48.66 8.36ZM61.85 14.35L58.67 4.58L56.04 4.58L52.82 14.35L54.98 14.35L55.68 12.03L58.94 12.03L59.64 14.35ZM58.42 10.22L56.18 10.22L57.26 6.51L57.33 6.51ZM63.10 17.15L65.17 17.15L65.17 13.12L65.24 13.12C65.45 13.92 66.26 14.52 67.21 14.52C69.08 14.52 70.04 13.16 70.04 10.67C70.04 8.18 69.08 6.83 67.21 6.83C66.26 6.83 65.45 7.42 65.24 8.23L65.17 8.23L65.17 7.00L63.10 7.00ZM66.53 12.84C65.74 12.84 65.17 12.43 65.17 11.76L65.17 9.59C65.17 8.92 65.74 8.51 66.53 8.51C67.31 8.51 67.89 9.11 67.89 10.04L67.89 11.31C67.89 12.24 67.31 12.84 66.53 12.84ZM71.61 17.15L73.68 17.15L73.68 13.12L73.75 13.12C73.96 13.92 74.77 14.52 75.73 14.52C77.59 14.52 78.55 13.16 78.55 10.67C78.55 8.18 77.59 6.83 75.73 6.83C74.77 6.83 73.96 7.42 73.75 8.23L73.68 8.23L73.68 7.00L71.61 7.00ZM75.04 12.84C74.26 12.84 73.68 12.43 73.68 11.76L73.68 9.59C73.68 8.92 74.26 8.51 75.04 8.51C75.82 8.51 76.40 9.11 76.40 10.04L76.40 11.31C76.40 12.24 75.82 12.84 75.04 12.84Z"></path></g><!----><g data-v-423bf9ae="" id="ae48c60c-2823-489c-ac69-e4f66e83e2eb" transform="matrix(1.0556888156467015,0,0,1.0556888156467015,-21.110935041968737,-2.2927762338926456)" stroke="none" fill="#e11d48"><path d="M47.146 81.468c0-.929.708-1.676 1.594-1.676h4.027c.875 0 1.586.747 1.586 1.676v4.239c0 .927-.711 1.68-1.586 1.68H48.74c-.886 0-1.594-.753-1.594-1.68v-4.239z"></path><path d="M61.564 12.535v-.162c.005-3.431.013-9.815-8.363-9.826l-9.492-.011c-8.247 0-8.256 6.583-8.26 8.747 0 .442.064.863.19 1.252h-6.034c-4.951 0-8.979 4.143-8.979 9.232v66.545c0 5.091 4.027 9.236 8.979 9.236h40.693c4.957 0 8.986-4.146 8.986-9.236V21.768c0-5.09-4.029-9.232-8.986-9.232h-8.734zm-.008 9.543l.005-5.326h8.738c2.641 0 4.77 2.24 4.77 5.016v66.545c0 2.77-2.129 5.021-4.77 5.021H29.605c-2.629 0-4.764-2.251-4.764-5.021V21.768c0-2.775 2.135-5.016 4.764-5.016h10.269l-.006 5.326h-7.522c-1.316 0-2.379 1.125-2.379 2.518v49.24c0 1.384 1.062 2.511 2.379 2.511H67.57c1.311 0 2.381-1.127 2.381-2.511v-49.24c0-1.393-1.07-2.518-2.381-2.518h-6.014zm-19.417-11.5a2.492 2.492 0 00-1.767-.752c-.442 0-.872.116-1.288.346.18-2.678 1.146-4.036 4.635-4.036l9.479.011c4.117.006 4.773 1.482 4.768 6.222v.167l-.004 4.217-.006 5.326-.02 20.838-6.18-5.237a1.8 1.8 0 00-2.366.034l-5.943 5.335.022-20.97.006-5.326.001-1.08c.001-1.24-.109-2.287-.331-3.137-.223-.856-.559-1.511-1.006-1.958z"></path></g><!----></svg>